inDegrees=no
num_controls=7
num_derivatives=13
num_iterations=144
num_multipliers=7
num_parameters=0
num_slacks=7
num_states=26
objective=5.468869
objective_accelerations=0.516884
objective_balance=0.016013
objective_effort=0.416424
objective_height=4.449277
objective_ligament=0.070271
solver_duration=1272.609572
status=Solve_Succeeded
success=true
DataType=double
version=3
OpenSimVersion=4.4-2022-07-23-0e9fedc
endheader
time	/jointset/ground_pelvis/pelvis_tilt/value	/jointset/ground_pelvis/pelvis_tx/value	/jointset/ground_pelvis/pelvis_ty/value	/jointset/hip_r/hip_flexion_r/value	/jointset/hip_r/hip_adduction_r/value	/jointset/hip_r/hip_rotation_r/value	/jointset/back/lumbar_extension/value	/jointset/patellofemoral_r/patellar_flexion_r/value	/jointset/knee_r/knee_flexion_r/value	/jointset/knee_r/knee_adduction_r/value	/jointset/knee_r/knee_rotation_r/value	/jointset/ankle_r/ankle_angle_r/value	/jointset/subtalar_r/subtalar_angle_r/value	/jointset/ground_pelvis/pelvis_tilt/speed	/jointset/ground_pelvis/pelvis_tx/speed	/jointset/ground_pelvis/pelvis_ty/speed	/jointset/hip_r/hip_flexion_r/speed	/jointset/hip_r/hip_adduction_r/speed	/jointset/hip_r/hip_rotation_r/speed	/jointset/back/lumbar_extension/speed	/jointset/patellofemoral_r/patellar_flexion_r/speed	/jointset/knee_r/knee_flexion_r/speed	/jointset/knee_r/knee_adduction_r/speed	/jointset/knee_r/knee_rotation_r/speed	/jointset/ankle_r/ankle_angle_r/speed	/jointset/subtalar_r/subtalar_angle_r/speed	/forceset/tau_hip_flexion_r	/forceset/tau_hip_adduction_r	/forceset/tau_hip_rotation_r	/forceset/tau_knee_flexion_r	/forceset/tau_ankle_angle_r	/forceset/tau_subtalar_angle_r	/forceset/tau_lumbar_extension	lambda_cid13_p0	lambda_cid14_p0	lambda_cid14_p1	lambda_cid14_p2	lambda_cid14_p3	lambda_cid14_p4	lambda_cid14_p5	/jointset/ground_pelvis/pelvis_tilt/accel	/jointset/ground_pelvis/pelvis_tx/accel	/jointset/ground_pelvis/pelvis_ty/accel	/jointset/hip_r/hip_flexion_r/accel	/jointset/hip_r/hip_adduction_r/accel	/jointset/hip_r/hip_rotation_r/accel	/jointset/back/lumbar_extension/accel	/jointset/patellofemoral_r/patellar_flexion_r/accel	/jointset/knee_r/knee_flexion_r/accel	/jointset/knee_r/knee_adduction_r/accel	/jointset/knee_r/knee_rotation_r/accel	/jointset/ankle_r/ankle_angle_r/accel	/jointset/subtalar_r/subtalar_angle_r/accel	gamma_cid13_p0	gamma_cid14_p0	gamma_cid14_p1	gamma_cid14_p2	gamma_cid14_p3	gamma_cid14_p4	gamma_cid14_p5
0.5	-0.11674079947828	0.03650633822648798	0.8217878614151319	0.8225220692245668	-0.2172245901089536	-0.1451349834181333	-0.6393792608189173	0.9034769926876765	0.903476992687671	-0.06058946375286479	0.1745310570539082	0.2914198202548535	0.1464571786314113	-0.3135128925084258	-0.1878728360979351	-0.4411125330308108	1.685549903045841	-0.0232404060675334	0.1560749835550063	-0.7402983629377011	1.797083906325619	1.797083906325578	-0.4293586682435457	5.016773741240963e-05	0.5277958881974436	0.1784439404106588	-0.1832121968745968	0.005322571452613373	0.01578268229031751	-0.278604323520131	-0.009998955842330969	0.004195277502870411	0.2309341003580196	-11.29348319936714	-45.50648786025707	-4.29545716449162	-1.006843746853055	-2.270013369458272	-643.1991820807702	65.96668198655883	0.2443692622207869	0.5089159897185417	-0.3687713394332205	-1.158295957096366	-0.200647561498703	-0.6189635837852926	1.68014525045374	-1.274085258542069	-1.274085258542043	0.3634917157081275	0.005859503796592834	-0.4999008455278846	-0.3245823761440658	-1.090242734832508e-07	-1.713693820105865e-07	-7.153066897584161e-08	-1.835253959475905e-06	9.629706750159185e-08	-2.194087624968221e-07	1.561018667763214e-07
0.51	-0.1198629985648056	0.03465319124239961	0.817359276399009	0.8393171065298832	-0.217467882103389	-0.1436023134408504	-0.6466975143724952	0.9213819780599796	0.9213819780599726	-0.0648606429017099	0.1745314966050196	0.2966716602237163	0.1482234256737576	-0.3108691604177375	-0.1827450104210362	-0.4445073399358516	1.673232224023207	-0.02541083753005956	0.1505076564592333	-0.7232639586950594	1.783678896042459	1.783678896042465	-0.4248037795735726	2.445332519946988e-05	0.5224902103148733	0.1747661981041319	-0.189367894329837	0.006779229805557783	0.01603271713261343	-0.2824073007295966	-0.01191920319566791	0.004487083914886285	0.2366552056960985	-10.36030659989613	-46.40338195452622	-4.488060503554916	-0.7907570579095726	-1.956801282658011	-647.5094605716926	65.9080513050245	0.2830174274356328	0.5164713742115893	-0.310312023653542	-1.302332061992357	-0.2244799630264829	-0.5185738336953299	1.72834637354609	-1.408826139261948	-1.408826139254809	0.5124532089034941	-0.0091777812744047	-0.5581883032341282	-0.3955265292282805	-1.044576730219963e-07	-1.300099316762256e-07	2.196419612689024e-07	-1.475640519438494e-06	4.336860894050046e-08	-1.927607126311036e-07	3.15069930675766e-07
0.52	-0.1229570318814342	0.03285167361858737	0.8128996479823127	0.8559822014075452	-0.2177327262173295	-0.1421239080467683	-0.653842772211171	0.9391458898842381	0.9391458898842313	-0.06908408001060369	0.1745312008385228	0.3018679860050307	0.1499516640187744	-0.3078797385293411	-0.1775469640427079	-0.4473212131454424	1.659561417514756	-0.02755082996846402	0.1452220669145799	-0.7056992199573483	1.768869196716942	1.768869196716996	-0.4198102602531365	-9.689578878091393e-05	0.5166930506878031	0.1708422009447549	-0.1955235917850752	0.008235888158507379	0.01628275197491721	-0.2862102779390608	-0.0138394505490031	0.004778890326910456	0.2423763110341791	-9.431782136620328	-47.30152903254209	-4.676952204385973	-0.5797528600033006	-1.667117742804542	-651.836101380768	65.92620420166153	0.313507221762384	0.5229601300044613	-0.2525846003432073	-1.428921454259611	-0.1945597566743412	-0.562616073561325	1.786212149467624	-1.555023067013509	-1.555023067013526	0.4512178458007324	-0.01326743655696599	-0.5981971944278277	-0.373833346714037	-7.721979361119981e-08	-3.807946904135322e-09	9.624728562843817e-07	-3.271635735178712e-07	-1.010803370466843e-07	-1.15539046819169e-07	7.176557820862592e-07
0.53	-0.126019633165309	0.03110250611548295	0.8084148384759924	0.8725039674544481	-0.218018260138806	-0.1407007731312583	-0.6608098493995392	0.9567542221216097	0.9567542221216254	-0.07325922594557409	0.1745309645118392	0.307004125173255	0.1516404346243724	-0.3045958962587017	-0.1722712219251036	-0.4495384024550775	1.644568200837396	-0.02955398536909832	0.1394760152913611	-0.6876438378118591	1.75256772956318	1.752567729563218	-0.4151198959769462	2.726613199753384e-05	0.5104648766235567	0.1668679251509214	-0.2011061344392184	0.00860397226769081	0.0166530133648199	-0.2910356732698675	-0.01459774269579232	0.005364961018359925	0.2477001634101712	-8.522136354542228	-47.80428110133651	-4.647952806355263	-0.4273155592490789	-1.709358494292571	-656.2778706638079	66.55779238676259	0.3425241300690653	0.5321430601098226	-0.190958242373616	-1.568051126100078	-0.202780447079756	-0.5700074391559304	1.826058232710301	-1.702124136061349	-1.702124136063639	0.4929822350050514	0.02199737531711916	-0.6456556171108612	-0.4155791139671313	-6.025615799576056e-08	6.60561397122056e-08	1.345142099386498e-06	3.001264974724081e-07	-1.7815145673396e-07	-7.078289898197331e-08	9.304904502324807e-07
0.54	-0.1290480557464045	0.02940654839504879	0.8039109226473556	0.8888690954642535	-0.2183237430173535	-0.1393329802784719	-0.6675942013693278	0.9741926565681417	0.9741926565681818	-0.07738446093448688	0.1745313176781376	0.3120758769798996	0.1532881915883822	-0.3010439979738918	-0.166905007508656	-0.4511424776086977	1.628233810094997	-0.03154062138260306	0.1341536543699909	-0.6691541762415396	1.734889638549268	1.734889638549292	-0.409828071041681	2.100280965119868e-05	0.503815578371799	0.1626394726271225	-0.2066886770933609	0.008972056376870445	0.01702327475473004	-0.2958610686006714	-0.01535603484258154	0.005951031709803382	0.2530240157861645	-7.661557241550494	-48.30604563032536	-4.611358322483817	-0.2845655553130556	-1.776447934511499	-660.7259712729322	67.21615044113172	0.3671184245964655	0.5410545897731064	-0.1299617691402441	-1.697156267267513	-0.191255879248407	-0.4778779331915671	1.873068034433646	-1.830347839043347	-1.830347839043388	0.5715099776156993	-0.03935248518197871	-0.6824220319300687	-0.4246686927071105	-5.465977083475923e-08	7.358893475197208e-08	1.329334621222761e-06	3.507842813057051e-07	-1.806768962596332e-07	-6.19460476274678e-08	9.333876390224839e-07
0.55	-0.1320396133924111	0.027764600251861	0.7993940450840793	0.9050643299376929	-0.218648884838088	-0.1380168947963804	-0.6741916071432554	0.991447489993721	0.9914474899937616	-0.08145446060605717	0.1745312511459044	0.3170790555281548	0.1548925804505953	-0.2972205134465939	-0.1614794445448339	-0.452129037942525	1.610600076684242	-0.03347714041495437	0.1290828566771929	-0.6502679726276877	1.715851784998841	1.715851784998841	-0.4041245389083821	-2.72939723850457e-05	0.4967504905720639	0.1582070568370625	-0.2123530170505929	0.009814051764302121	0.01727607655495764	-0.3003042856314634	-0.01673388380122751	0.006317425906623016	0.2583248860838877	-6.851847021213619	-49.03266782355297	-4.719307484859282	-0.1076161303340522	-1.56745226446623	-665.1751308906345	67.52786434798713	0.3970261600712543	0.5440472264171454	-0.06741502508666232	-1.828421476310114	-0.1931337055776512	-0.5188271592971047	1.905247412266131	-1.974283026759171	-1.974283026762698	0.5770478993671667	0.01360020803415616	-0.7290379475119443	-0.4569626515040715	-4.836288230569476e-08	7.92921428554835e-08	1.289074321301306e-06	3.81395552762069e-07	-1.799760784615411e-07	-5.433198089937432e-08	9.236493504136602e-07
0.5600000000000001	-0.1349915236544874	0.02617705575365743	0.7948704195455482	0.9210768391573603	-0.2189930486072164	-0.136750946585611	-0.6805983807035629	1.008505189101053	1.008505189101092	-0.08546597034265849	0.1745309353424121	0.3220094860397095	0.1564517582290381	-0.2931145211883079	-0.1560242785118116	-0.4524920726596447	1.591688759340258	-0.03534501106127272	0.1241262001054673	-0.6310277335176282	1.695462774899743	1.69546277489972	-0.3981300840478759	-2.885144447571288e-05	0.4892659710316617	0.153597255873057	-0.2180173570078242	0.01065604715173358	0.01752887835516623	-0.3047475026622562	-0.01811173275987249	0.006683820103443168	0.2636257563816118	-6.093155080268007	-49.75911945774426	-4.821176476474204	0.06145412250736814	-1.380584478992761	-669.6365111598446	67.86013096766872	0.423619970794046	0.546975203613132	-0.005256645798767758	-1.952673053913264	-0.1775262020418011	-0.4550497089770724	1.9438751336751	-2.100579148777566	-2.100579148777548	0.6296945230571798	-0.03000462319289496	-0.7663083800634678	-0.4601457274961914	-4.122539213495458e-08	8.27998466354889e-08	1.219470635270589e-06	3.879510093661142e-07	-1.754037518749308e-07	-4.818525572297524e-08	8.987484889262445e-07
0.5700000000000001	-0.1379010674368278	0.024644178646022	0.7903462929321505	0.9368939960718574	-0.2193555155363271	-0.1355336977507647	-0.6868110625881356	1.025352369694489	1.025352369694417	-0.08941593424989303	0.1745306270909644	0.3268630473084956	0.157964005594805	-0.2887524977822435	-0.1505487317476509	-0.4522268978782026	1.571534829735717	-0.03713722231180636	0.1193619399505394	-0.6114634999294374	1.673756036812976	1.673756036812964	-0.3917972595208005	-3.162213933245363e-05	0.4813825052047342	0.1488225886183271	-0.2234083463008951	0.01124671642418793	0.01776004003504946	-0.3094622938790104	-0.01923304713527359	0.007081522368661282	0.2686847178249261	-5.385277238086581	-50.40039495131629	-4.887934975037463	0.2173872159399652	-1.222431759947829	-674.0888420617708	68.30559704914344	0.4487648452200423	0.5481715394773287	0.05834841969826817	-2.077909663403441	-0.1782818376469953	-0.4814037281795745	1.969468991477315	-2.238309747210804	-2.238309747209116	0.6450429256421589	0.01488082458709709	-0.8089656598753817	-0.4903404136160942	-3.458574689028306e-08	8.630496871203578e-08	1.1541407892868e-06	3.972868755621791e-07	-1.713404215447927e-07	-4.115814480760517e-08	8.74619934450785e-07
0.58	-0.1407657367211638	0.02316612243136007	0.785828006842484	0.9525033823403746	-0.2197355472281606	-0.1343629494293557	-0.6928267478328085	1.041975965185342	1.041975965185156	-0.09330057661023325	0.1745303499560047	0.3316358539238393	0.1594276636501936	-0.2841396215878865	-0.1450600999171119	-0.4513239679134435	1.550134630144017	-0.03885796360585168	0.1148260974184542	-0.5916284055377959	1.650745754382829	1.650745754382829	-0.3850657746693473	-2.262814542053065e-05	0.4731150403430883	0.143879393797408	-0.2287993355939671	0.01183738569663245	0.01799120171490337	-0.3141770850957658	-0.02035436151067598	0.00747922463386373	0.2737436792682404	-4.727651567887697	-51.04206419084696	-4.948497684730842	0.3651779654642963	-1.087253836969356	-678.5667959005957	68.77135383567001	0.4737905284525237	0.5495922168887842	0.122294390864655	-2.201927051345032	-0.1632322107441273	-0.4093661844084925	1.998047294365211	-2.361288017453532	-2.361288017453424	0.7094265879327442	-0.02765168543918905	-0.8431081870071707	-0.4938512407340359	-2.859445782839871e-08	8.980672857012501e-08	1.094376874526915e-06	4.102437402966882e-07	-1.679399700602926e-07	-3.298448502287766e-08	8.514971751536874e-07
0.59	-0.1435830873669043	0.02174296362336174	0.7813219113973223	0.9678927532795222	-0.2201323305605413	-0.1332364462724818	-0.6986428228549054	1.058363151268901	1.058363151268745	-0.09711616960541299	0.1745301024411728	0.3363241834141896	0.1608412401651042	-0.2792901305807755	-0.1395742610674559	-0.4497903871932694	1.527544174376803	-0.0404810714209192	0.1105024219900572	-0.5715564324824096	1.626490292088795	1.626490292088811	-0.3780078637618879	-2.544159705523308e-05	0.4644967546177146	0.1388205159464283	-0.2339789937340501	0.01252569595833785	0.01815416055507677	-0.3188226471509785	-0.02151411228355227	0.007780996629239528	0.2785616262642102	-4.119568154109456	-51.69607913550843	-5.058777303881883	0.5276246407193216	-0.8780911961373061	-682.8701040511237	69.10979988489301	0.4965962481697784	0.5476566216958779	0.1845943622585355	-2.316899215339402	-0.1590986164572283	-0.4397175878477522	2.016297270974459	-2.487845854534358	-2.48784585453208	0.7108480118058734	0.013740244817814	-0.8793321103428456	-0.5139999461487637	-2.329446252355761e-08	9.210817850957021e-08	1.033207635676767e-06	4.141161035836726e-07	-1.638185841469013e-07	-2.56964397633855e-08	8.258129737154578e-07
